<svg width="1440" height="2400" viewBox="0 0 1440 2400" fill="none" xmlns="http://www.w3.org/2000/svg">
  <defs>
    <linearGradient id="heroBg" x1="180" y1="120" x2="1240" y2="860" gradientUnits="userSpaceOnUse">
      <stop stop-color="#0F0F10"/>
      <stop offset="0.6" stop-color="#171719"/>
      <stop offset="1" stop-color="#221113"/>
    </linearGradient>
    <linearGradient id="redGlow" x1="0" y1="0" x2="1" y2="1">
      <stop stop-color="#FF2746" stop-opacity="0.9"/>
      <stop offset="1" stop-color="#A40018" stop-opacity="0.4"/>
    </linearGradient>
    <linearGradient id="panelRed" x1="0" y1="0" x2="1" y2="1">
      <stop stop-color="#F11836"/>
      <stop offset="1" stop-color="#B20D23"/>
    </linearGradient>
    <filter id="shadow" x="-20%" y="-20%" width="140%" height="140%">
      <feDropShadow dx="0" dy="18" stdDeviation="24" flood-color="#180507" flood-opacity="0.18"/>
    </filter>
    <clipPath id="heroPhotoMain">
      <rect x="915" y="200" width="355" height="420" rx="34"/>
    </clipPath>
    <clipPath id="heroPhotoSmallA">
      <rect x="1070" y="650" width="200" height="150" rx="24"/>
    </clipPath>
    <clipPath id="heroPhotoSmallB">
      <rect x="850" y="650" width="200" height="150" rx="24"/>
    </clipPath>
    <clipPath id="gallery1">
      <rect x="120" y="1260" width="370" height="260" rx="28"/>
    </clipPath>
    <clipPath id="gallery2">
      <rect x="535" y="1260" width="370" height="260" rx="28"/>
    </clipPath>
    <clipPath id="gallery3">
      <rect x="950" y="1260" width="370" height="260" rx="28"/>
    </clipPath>
  </defs>

  <rect width="1440" height="2400" fill="#F3F3F4"/>
  <rect x="0" y="0" width="1440" height="960" fill="url(#heroBg)"/>
  <circle cx="1180" cy="180" r="240" fill="#D5132B" fill-opacity="0.12"/>
  <circle cx="1320" cy="560" r="200" fill="#D5132B" fill-opacity="0.08"/>
  <circle cx="190" cy="820" r="240" fill="#FFFFFF" fill-opacity="0.03"/>

  <rect x="74" y="40" width="1292" height="72" rx="24" fill="#FFFFFF" fill-opacity="0.08" stroke="#FFFFFF" stroke-opacity="0.08"/>
  <text x="120" y="84" fill="#FFFFFF" font-size="22" font-family="Arial, Helvetica, sans-serif" font-weight="700">OY's Appliance Services</text>
  <text x="815" y="84" fill="#FFFFFF" fill-opacity="0.8" font-size="20" font-family="Arial, Helvetica, sans-serif">Home</text>
  <text x="910" y="84" fill="#FFFFFF" fill-opacity="0.8" font-size="20" font-family="Arial, Helvetica, sans-serif">Services</text>
  <text x="1030" y="84" fill="#FFFFFF" fill-opacity="0.8" font-size="20" font-family="Arial, Helvetica, sans-serif">Gallery</text>
  <text x="1140" y="84" fill="#FFFFFF" fill-opacity="0.8" font-size="20" font-family="Arial, Helvetica, sans-serif">Reviews</text>
  <rect x="1248" y="58" width="82" height="36" rx="18" fill="#F11836"/>
  <text x="1270" y="82" fill="#FFFFFF" font-size="16" font-family="Arial, Helvetica, sans-serif" font-weight="700">中文</text>

  <text x="120" y="205" fill="#FF7A8D" font-size="22" font-family="Arial, Helvetica, sans-serif" font-weight="700" letter-spacing="1.2">FAST, RELIABLE, PROFESSIONAL</text>

  <image href="../images/logo.png" x="118" y="235" width="520" height="346" preserveAspectRatio="xMinYMin meet"/>

  <text x="120" y="635" fill="#FFFFFF" font-size="62" font-family="Arial, Helvetica, sans-serif" font-weight="800">
    <tspan x="120" dy="0">Fast, Reliable Appliance</tspan>
    <tspan x="120" dy="76">Repairs Across Auckland</tspan>
  </text>

  <text x="120" y="805" fill="#FFFFFF" fill-opacity="0.78" font-size="25" font-family="Arial, Helvetica, sans-serif">
    <tspan x="120" dy="0">Home appliances, air conditioning, and commercial refrigeration</tspan>
    <tspan x="120" dy="38">repairs with clear pricing, sharp communication, and dependable work.</tspan>
  </text>

  <rect x="120" y="872" width="220" height="64" rx="32" fill="url(#panelRed)" filter="url(#shadow)"/>
  <text x="168" y="912" fill="#FFFFFF" font-size="22" font-family="Arial, Helvetica, sans-serif" font-weight="700">Book a Repair</text>
  <rect x="364" y="872" width="180" height="64" rx="32" fill="#FFFFFF" fill-opacity="0.08" stroke="#FFFFFF" stroke-opacity="0.15"/>
  <text x="420" y="912" fill="#FFFFFF" font-size="22" font-family="Arial, Helvetica, sans-serif" font-weight="700">Call Now</text>

  <rect x="820" y="160" width="520" height="690" rx="44" fill="#FFFFFF" fill-opacity="0.06" stroke="#FFFFFF" stroke-opacity="0.09"/>
  <circle cx="1270" cy="210" r="100" fill="url(#redGlow)" fill-opacity="0.8"/>
  <g clip-path="url(#heroPhotoMain)">
    <image href="../images/9.jpg" x="900" y="180" width="390" height="460" preserveAspectRatio="xMidYMid slice"/>
  </g>
  <g clip-path="url(#heroPhotoSmallA)">
    <image href="../images/11.jpg" x="1050" y="630" width="240" height="190" preserveAspectRatio="xMidYMid slice"/>
  </g>
  <g clip-path="url(#heroPhotoSmallB)">
    <image href="../images/gree.jpg" x="825" y="630" width="240" height="190" preserveAspectRatio="xMidYMid slice"/>
  </g>
  <rect x="852" y="178" width="130" height="38" rx="19" fill="#F11836"/>
  <text x="881" y="203" fill="#FFFFFF" font-size="17" font-family="Arial, Helvetica, sans-serif" font-weight="700">Auckland Wide</text>

  <rect x="110" y="1010" width="1220" height="180" rx="34" fill="#FFFFFF" filter="url(#shadow)"/>
  <text x="150" y="1070" fill="#181818" font-size="22" font-family="Arial, Helvetica, sans-serif" font-weight="700">Why customers choose us</text>
  <rect x="150" y="1095" width="3" height="50" fill="#F11836"/>
  <text x="175" y="1124" fill="#181818" font-size="30" font-family="Arial, Helvetica, sans-serif" font-weight="800">Same-Day Response</text>
  <text x="175" y="1160" fill="#666666" font-size="18" font-family="Arial, Helvetica, sans-serif">Available when scheduling allows.</text>

  <rect x="545" y="1095" width="3" height="50" fill="#F11836"/>
  <text x="570" y="1124" fill="#181818" font-size="30" font-family="Arial, Helvetica, sans-serif" font-weight="800">Residential &amp; Commercial</text>
  <text x="570" y="1160" fill="#666666" font-size="18" font-family="Arial, Helvetica, sans-serif">One brand for homes, shops, and cooling systems.</text>

  <rect x="975" y="1095" width="3" height="50" fill="#F11836"/>
  <text x="1000" y="1124" fill="#181818" font-size="30" font-family="Arial, Helvetica, sans-serif" font-weight="800">Clear Quotes</text>
  <text x="1000" y="1160" fill="#666666" font-size="18" font-family="Arial, Helvetica, sans-serif">Work starts after the scope is explained.</text>

  <text x="120" y="1605" fill="#181818" font-size="50" font-family="Arial, Helvetica, sans-serif" font-weight="800">Repair services with a stronger brand look.</text>
  <text x="120" y="1650" fill="#666666" font-size="24" font-family="Arial, Helvetica, sans-serif">
    <tspan x="120" dy="0">Black for trust. Red for urgency and action. White space for a cleaner, more premium service image.</tspan>
  </text>

  <rect x="120" y="1700" width="392" height="250" rx="28" fill="#101011"/>
  <rect x="120" y="1700" width="392" height="8" rx="4" fill="#F11836"/>
  <text x="150" y="1760" fill="#FFFFFF" font-size="28" font-family="Arial, Helvetica, sans-serif" font-weight="800">Air Conditioning</text>
  <text x="150" y="1805" fill="#FFFFFF" fill-opacity="0.72" font-size="19" font-family="Arial, Helvetica, sans-serif">
    <tspan x="150" dy="0">Installations, repairs,</tspan>
    <tspan x="150" dy="30">maintenance, and fault finding.</tspan>
  </text>
  <rect x="150" y="1868" width="138" height="42" rx="21" fill="#F11836"/>
  <text x="186" y="1896" fill="#FFFFFF" font-size="17" font-family="Arial, Helvetica, sans-serif" font-weight="700">Learn More</text>

  <rect x="524" y="1700" width="392" height="250" rx="28" fill="#FFFFFF"/>
  <rect x="524" y="1700" width="392" height="8" rx="4" fill="#F11836"/>
  <text x="554" y="1760" fill="#181818" font-size="28" font-family="Arial, Helvetica, sans-serif" font-weight="800">Fridge &amp; Freezer Repair</text>
  <text x="554" y="1805" fill="#666666" font-size="19" font-family="Arial, Helvetica, sans-serif">
    <tspan x="554" dy="0">Cooling loss, frost build-up,</tspan>
    <tspan x="554" dy="30">noise, leaks, and temperature faults.</tspan>
  </text>
  <rect x="554" y="1868" width="138" height="42" rx="21" fill="#101011"/>
  <text x="590" y="1896" fill="#FFFFFF" font-size="17" font-family="Arial, Helvetica, sans-serif" font-weight="700">Learn More</text>

  <rect x="928" y="1700" width="392" height="250" rx="28" fill="#FFFFFF"/>
  <rect x="928" y="1700" width="392" height="8" rx="4" fill="#F11836"/>
  <text x="958" y="1760" fill="#181818" font-size="28" font-family="Arial, Helvetica, sans-serif" font-weight="800">Commercial Refrigeration</text>
  <text x="958" y="1805" fill="#666666" font-size="19" font-family="Arial, Helvetica, sans-serif">
    <tspan x="958" dy="0">Display cabinets, cool rooms,</tspan>
    <tspan x="958" dy="30">and shop refrigeration systems.</tspan>
  </text>
  <rect x="958" y="1868" width="138" height="42" rx="21" fill="#101011"/>
  <text x="994" y="1896" fill="#FFFFFF" font-size="17" font-family="Arial, Helvetica, sans-serif" font-weight="700">Learn More</text>

  <text x="120" y="1220" fill="#181818" font-size="46" font-family="Arial, Helvetica, sans-serif" font-weight="800">Recent work</text>
  <text x="120" y="1250" fill="#666666" font-size="22" font-family="Arial, Helvetica, sans-serif">A cleaner gallery treatment with dark captions and red highlights.</text>
  <g clip-path="url(#gallery1)">
    <image href="../images/2.jpg" x="100" y="1240" width="420" height="300" preserveAspectRatio="xMidYMid slice"/>
  </g>
  <g clip-path="url(#gallery2)">
    <image href="../images/4.jpg" x="515" y="1240" width="420" height="300" preserveAspectRatio="xMidYMid slice"/>
  </g>
  <g clip-path="url(#gallery3)">
    <image href="../images/8.jpg" x="930" y="1240" width="420" height="300" preserveAspectRatio="xMidYMid slice"/>
  </g>
  <rect x="120" y="1455" width="370" height="65" rx="0" fill="#111111" fill-opacity="0.84"/>
  <rect x="535" y="1455" width="370" height="65" rx="0" fill="#111111" fill-opacity="0.84"/>
  <rect x="950" y="1455" width="370" height="65" rx="0" fill="#111111" fill-opacity="0.84"/>
  <text x="145" y="1496" fill="#FFFFFF" font-size="22" font-family="Arial, Helvetica, sans-serif" font-weight="700">Refrigerator Repair</text>
  <text x="560" y="1496" fill="#FFFFFF" font-size="22" font-family="Arial, Helvetica, sans-serif" font-weight="700">Dishwasher Repair</text>
  <text x="975" y="1496" fill="#FFFFFF" font-size="22" font-family="Arial, Helvetica, sans-serif" font-weight="700">Display Cabinet Service</text>

  <rect x="0" y="2020" width="1440" height="260" fill="#101011"/>
  <text x="120" y="2100" fill="#FFFFFF" font-size="44" font-family="Arial, Helvetica, sans-serif" font-weight="800">Get in touch</text>
  <text x="120" y="2150" fill="#FFFFFF" fill-opacity="0.72" font-size="22" font-family="Arial, Helvetica, sans-serif">Call, email, or send a booking request and we'll confirm the next available time.</text>
  <rect x="120" y="2190" width="250" height="56" rx="28" fill="#F11836"/>
  <text x="177" y="2226" fill="#FFFFFF" font-size="22" font-family="Arial, Helvetica, sans-serif" font-weight="700">021 463 788</text>
  <rect x="392" y="2190" width="380" height="56" rx="28" fill="#FFFFFF" fill-opacity="0.08" stroke="#FFFFFF" stroke-opacity="0.14"/>
  <text x="433" y="2226" fill="#FFFFFF" font-size="22" font-family="Arial, Helvetica, sans-serif">support@theairtech.co.nz</text>
</svg>
